<svg xmlns="http://www.w3.org/2000/svg" viewBox="0 0 260 180">
  <path d="M34 150c8-25 25-39 48-43l24-4 2-54c0-12 7-20 17-20 11 0 17 8 17 20v34l10-56c2-12 10-18 20-16 10 2 14 11 12 23l-8 48 14-46c4-11 13-15 22-12 9 4 12 13 8 24l-15 43 15-30c5-10 14-13 22-9 9 5 10 15 5 25l-25 47c-12 23-30 37-57 42l-31 6c-34 6-63-2-100-22Z" fill="#f2b78b" stroke="#6d3c2b" stroke-width="8" stroke-linejoin="round"/>
  <path d="M84 105c28-1 50 8 66 27" fill="none" stroke="#d28d65" stroke-width="7" stroke-linecap="round"/>
  <path d="M22 142c29 7 57 19 84 35H21Z" fill="#1261a0" stroke="#08375e" stroke-width="8"/>
</svg>
